<svg width="25" height="24" viewBox="0 0 25 24" fill="currentColor" xmlns="http://www.w3.org/2000/svg">
<g clip-path="url(#clip0_311_858)">
<path d="M9.5 11.75C8.81 11.75 8.25 12.31 8.25 13C8.25 13.69 8.81 14.25 9.5 14.25C10.19 14.25 10.75 13.69 10.75 13C10.75 12.31 10.19 11.75 9.5 11.75ZM15.5 11.75C14.81 11.75 14.25 12.31 14.25 13C14.25 13.69 14.81 14.25 15.5 14.25C16.19 14.25 16.75 13.69 16.75 13C16.75 12.31 16.19 11.75 15.5 11.75ZM12.5 2C6.98 2 2.5 6.48 2.5 12C2.5 17.52 6.98 22 12.5 22C18.02 22 22.5 17.52 22.5 12C22.5 6.48 18.02 2 12.5 2ZM12.5 20C8.09 20 4.5 16.41 4.5 12C4.5 11.71 4.52 11.42 4.55 11.14C6.91 10.09 8.78 8.16 9.76 5.77C11.57 8.33 14.55 10 17.92 10C18.7 10 19.45 9.91 20.17 9.74C20.38 10.45 20.5 11.21 20.5 12C20.5 16.41 16.91 20 12.5 20Z" />
</g>
</svg>
