<svg width="28" height="26" viewBox="0 0 28 26" fill="currentColor" xmlns="http://www.w3.org/2000/svg">
<path d="M18.3505 15.1667H17.4537L17.1358 14.8742C18.2868 13.6002 18.9194 11.9738 18.9182 10.2917C18.9182 8.89896 18.4854 7.53753 17.6746 6.37953C16.8638 5.22153 15.7113 4.31899 14.363 3.78602C13.0147 3.25305 11.531 3.1136 10.0996 3.38531C8.66821 3.65701 7.3534 4.32766 6.32143 5.31246C5.28946 6.29725 4.58668 7.55196 4.30196 8.91791C4.01724 10.2839 4.16337 11.6997 4.72187 12.9864C5.28037 14.2731 6.22615 15.3729 7.43962 16.1466C8.65309 16.9204 10.0797 17.3333 11.5392 17.3333C13.3669 17.3333 15.047 16.6942 16.3412 15.6325L16.6477 15.9358V16.7917L22.3238 22.1975L24.0153 20.5833L18.3505 15.1667ZM11.5392 15.1667C8.71245 15.1667 6.43063 12.9892 6.43063 10.2917C6.43063 7.59417 8.71245 5.41667 11.5392 5.41667C14.3659 5.41667 16.6477 7.59417 16.6477 10.2917C16.6477 12.9892 14.3659 15.1667 11.5392 15.1667Z" />
</svg>
