<svg  viewBox="0 0 26 26" fill="currentColor" xmlns="http://www.w3.org/2000/svg">
<path d="M8.72301 6.32338C10.0695 5.72507 11.5266 5.41616 13 5.41663C16.2013 5.41663 18.7514 6.84121 20.6483 8.51929C22.5507 10.2017 23.7532 12.1019 24.2309 12.9393C24.2419 12.9573 24.2478 12.9778 24.2483 12.9989C24.2479 13.0218 24.2415 13.0442 24.2298 13.0639C23.7427 13.908 23.1884 14.7115 22.5723 15.4667C22.5008 15.5489 22.4465 15.6447 22.4127 15.7483C22.3789 15.8519 22.3663 15.9613 22.3757 16.0698C22.385 16.1784 22.4161 16.284 22.4671 16.3803C22.5181 16.4767 22.5879 16.5617 22.6725 16.6305C22.757 16.6993 22.8545 16.7503 22.9592 16.7807C23.0639 16.811 23.1736 16.8199 23.2818 16.8069C23.39 16.794 23.4945 16.7594 23.5891 16.7052C23.6837 16.651 23.7664 16.5783 23.8323 16.4915C24.5048 15.6677 25.1099 14.791 25.6414 13.8699C25.7934 13.606 25.8735 13.3068 25.8736 13.0023C25.8738 12.6977 25.7941 12.3985 25.6425 12.1344C25.1171 11.2135 23.8117 9.14763 21.7252 7.30271C19.6343 5.45346 16.718 3.79163 13 3.79163C11.1638 3.79163 9.5171 4.19679 8.06868 4.83488C7.8725 4.92234 7.71893 5.08392 7.64156 5.2843C7.56419 5.48467 7.56931 5.70753 7.65581 5.90414C7.7423 6.10075 7.90312 6.25511 8.10311 6.33347C8.3031 6.41183 8.52598 6.40889 8.72301 6.32338ZM20.7632 19.4859C18.772 20.995 16.1774 22.2083 13 22.2083C9.28201 22.2083 6.36459 20.5465 4.27485 18.6983C2.18834 16.8523 0.881845 14.7853 0.357512 13.8645C0.206178 13.6007 0.126641 13.3018 0.126831 12.9976C0.127021 12.6935 0.206932 12.3947 0.358595 12.1311C1.32779 10.451 2.53852 8.92235 3.95201 7.59413L1.42676 5.80879C1.33628 5.74861 1.25879 5.67089 1.19888 5.58023C1.13896 5.48957 1.09785 5.38781 1.07796 5.28097C1.05807 5.17414 1.05981 5.0644 1.08309 4.95825C1.10636 4.8521 1.15069 4.7517 1.21346 4.66299C1.27622 4.57428 1.35615 4.49906 1.4485 4.44179C1.54085 4.38451 1.64375 4.34634 1.75111 4.32954C1.85847 4.31274 1.96811 4.31765 2.07355 4.34397C2.17898 4.37029 2.27806 4.4175 2.36493 4.48279L24.5733 20.1911C24.6637 20.2513 24.7412 20.329 24.8011 20.4197C24.8611 20.5104 24.9022 20.6121 24.9221 20.7189C24.942 20.8258 24.9402 20.9355 24.9169 21.0417C24.8937 21.1478 24.8493 21.2482 24.7866 21.3369C24.7238 21.4256 24.6439 21.5009 24.5515 21.5581C24.4592 21.6154 24.3563 21.6536 24.2489 21.6704C24.1416 21.6872 24.0319 21.6823 23.9265 21.656C23.821 21.6296 23.722 21.5824 23.6351 21.5171L20.7632 19.4859ZM5.31051 8.55613C3.43635 10.2255 2.24685 12.1019 1.77018 12.9371C1.75821 12.9563 1.75183 12.9784 1.75176 13.001C1.75176 13.0173 1.75501 13.0379 1.7691 13.0606C2.24685 13.8991 3.44935 15.7982 5.35168 17.4806C7.24751 19.1587 9.79876 20.5833 13 20.5833C15.5285 20.5833 17.6475 19.695 19.3635 18.4957L15.5545 15.8015C14.9157 16.3846 14.0968 16.7319 13.2336 16.7856C12.3703 16.8393 11.5146 16.5963 10.8085 16.0968C10.1024 15.5973 9.58821 14.8714 9.35135 14.0396C9.11449 13.2077 9.16915 12.3199 9.50626 11.5234L5.31051 8.55721V8.55613Z" />
</svg>
