<svg width="23" height="18" viewBox="0 0 23 18" fill="currentColor" xmlns="http://www.w3.org/2000/svg">
<path d="M20.5 0.0100098H2.5C1.4 0.0100098 0.5 0.91001 0.5 2.01001V6.00001H2.5V1.99001H20.5V16.02H2.5V12H0.5V16.01C0.5 17.11 1.4 17.99 2.5 17.99H20.5C21.6 17.99 22.5 17.11 22.5 16.01V2.01001C22.5 0.90001 21.6 0.0100098 20.5 0.0100098ZM10.5 13L14.5 9.00001L10.5 5.00001V8.00001H0.5V10H10.5V13ZM22.5 0.0100098H0.5V6.00001H2.5V1.99001H20.5V16.02H2.5V12H0.5V17.99H22.5V0.0100098ZM10.5 13L14.5 9.00001L10.5 5.00001V8.00001H0.5V10H10.5V13Z"/>
</svg>
