<svg width="28" height="26" viewBox="0 0 28 26" fill="currentColor" xmlns="http://www.w3.org/2000/svg">
<path d="M3.40569 8.66667H23.8398C24.1409 8.66667 24.4297 8.55253 24.6426 8.34937C24.8554 8.1462 24.9751 7.87065 24.9751 7.58333C24.9751 7.29602 24.8554 7.02047 24.6426 6.8173C24.4297 6.61414 24.1409 6.5 23.8398 6.5H3.40569C3.10461 6.5 2.81586 6.61414 2.60296 6.8173C2.39007 7.02047 2.27046 7.29602 2.27046 7.58333C2.27046 7.87065 2.39007 8.1462 2.60296 8.34937C2.81586 8.55253 3.10461 8.66667 3.40569 8.66667ZM23.8398 17.3333H3.40569C3.10461 17.3333 2.81586 17.4475 2.60296 17.6506C2.39007 17.8538 2.27046 18.1293 2.27046 18.4167C2.27046 18.704 2.39007 18.9795 2.60296 19.1827C2.81586 19.3859 3.10461 19.5 3.40569 19.5H23.8398C24.1409 19.5 24.4297 19.3859 24.6426 19.1827C24.8554 18.9795 24.9751 18.704 24.9751 18.4167C24.9751 18.1293 24.8554 17.8538 24.6426 17.6506C24.4297 17.4475 24.1409 17.3333 23.8398 17.3333ZM23.8398 11.9167H3.40569C3.10461 11.9167 2.81586 12.0308 2.60296 12.234C2.39007 12.4371 2.27046 12.7127 2.27046 13C2.27046 13.2873 2.39007 13.5629 2.60296 13.766C2.81586 13.9692 3.10461 14.0833 3.40569 14.0833H23.8398C24.1409 14.0833 24.4297 13.9692 24.6426 13.766C24.8554 13.5629 24.9751 13.2873 24.9751 13C24.9751 12.7127 24.8554 12.4371 24.6426 12.234C24.4297 12.0308 24.1409 11.9167 23.8398 11.9167Z"/>
</svg>
